<svg width="939" height="166" viewBox="0 0 939 166" fill="none" xmlns="http://www.w3.org/2000/svg">
<path d="M127.34 37.99L84.8104 0V73.79L42.4204 35.73V126.43L84.9904 164.43V126.02L127.34 164.09V37.99Z" fill="#28506A"/>
<path d="M225.98 37.7001H240.77V163.94H227.96L225.98 149.15C219.85 157.62 209.93 165.02 194.42 165.02C168.99 165.02 150.24 147.89 150.24 117.95C150.24 89.8101 168.99 70.8801 194.42 70.8801C209.93 70.8801 220.39 77.1901 225.98 86.0301V37.7001ZM226.15 118.32C226.15 98.1201 213.89 84.0501 195.85 84.0501C177.81 84.0501 165.37 97.9401 165.37 117.96C165.37 137.98 177.64 151.86 195.85 151.86C214.06 151.86 226.15 137.97 226.15 118.31V118.32Z" fill="#28506A"/>
<path d="M249.88 117.96C249.88 90.0101 267.55 70.8901 293.52 70.8901C319.49 70.8901 336.44 87.3001 337.17 114.54C337.17 116.52 336.99 118.69 336.81 120.85H265.39V122.11C265.93 139.6 276.93 151.87 294.43 151.87C307.42 151.87 317.51 145.01 320.58 133.11H335.55C331.94 151.51 316.79 165.03 295.51 165.03C267.92 165.03 249.88 146.09 249.88 117.96ZM321.29 108.58C319.84 92.7101 309.02 83.8701 293.7 83.8701C280.17 83.8701 267.73 93.6101 266.29 108.58H321.3H321.29Z" fill="#28506A"/>
<path d="M696.63 104.07C696.63 82.6101 683.11 70.8801 659.66 70.8801C637.48 70.8801 622.87 81.5201 620.71 99.5601H635.5C637.3 90.1801 645.96 84.0501 658.94 84.0501C673.37 84.0501 681.84 91.2601 681.84 103.17V109.48H654.79C630.62 109.48 617.82 119.76 617.82 138.16C617.82 154.93 631.53 165.03 651.72 165.03C667.22 165.03 676.35 158.32 682.14 150.28L684.05 163.74L696.68 163.81L696.63 104.08V104.07ZM681.84 126.43C681.84 141.76 671.2 152.4 652.8 152.4C640.54 152.4 632.78 146.27 632.78 137.25C632.78 126.79 640.17 121.92 653.34 121.92H681.83V126.43H681.84Z" fill="#28506A"/>
<path d="M424.16 104.07C424.16 82.6101 410.64 70.8801 387.19 70.8801C365.01 70.8801 350.4 81.5201 348.24 99.5601H363.03C364.83 90.1801 373.49 84.0501 386.47 84.0501C400.9 84.0501 409.37 91.2601 409.37 103.17V109.48H382.32C358.15 109.48 345.35 119.76 345.35 138.16C345.35 154.93 359.06 165.03 379.25 165.03C394.75 165.03 403.88 158.32 409.67 150.28L411.58 163.74L424.21 163.81L424.16 104.08V104.07ZM409.37 126.43C409.37 141.76 398.73 152.4 380.33 152.4C368.07 152.4 360.31 146.27 360.31 137.25C360.31 126.79 367.7 121.92 380.87 121.92H409.36V126.43H409.37Z" fill="#28506A"/>
<path d="M454.28 37.7001H439.49V163.94H454.28V37.7001Z" fill="#28506A"/>
<path d="M711.86 37.7001H726.65V120.84L772.82 71.9701H791.04L755.15 110.02L793.56 163.94H775.7L745.22 120.66L726.64 139.78V163.95H711.85V37.7101L711.86 37.7001Z" fill="#28506A"/>
<path d="M790.03 117.96C790.03 90.0101 807.7 70.8901 833.67 70.8901C859.64 70.8901 876.59 87.3001 877.32 114.54C877.32 116.52 877.14 118.69 876.96 120.85H805.54V122.11C806.08 139.6 817.08 151.87 834.58 151.87C847.57 151.87 857.66 145.01 860.73 133.11H875.7C872.09 151.51 856.94 165.03 835.66 165.03C808.07 165.03 790.03 146.09 790.03 117.96ZM861.44 108.58C859.99 92.7101 849.17 83.8701 833.85 83.8701C820.32 83.8701 807.88 93.6101 806.44 108.58H861.45H861.44Z" fill="#28506A"/>
<path d="M938.14 71.9701V86.4001H930.74C911.44 86.4001 906.21 102.45 906.21 117.06V163.95H891.42V71.9701H904.22L906.21 85.8601C910.54 78.8301 917.57 71.9701 933.98 71.9701H938.13H938.14Z" fill="#28506A"/>
<path d="M606.83 110.52V164.09H592.06V111.42C592.06 93.4101 584.14 84.0501 570.27 84.0501C554.96 84.0501 545.6 95.5801 545.6 114.31V164.1H530.83V111.43C530.83 93.4201 522.73 84.0601 508.68 84.0601C493.55 84.0601 484.37 96.6701 484.37 115.04V164.11H469.6V71.6401H482.39L484.37 84.2501C489.23 77.5901 496.97 70.5601 511.2 70.5601C523.99 70.5601 534.97 76.3201 540.19 88.0301C545.77 78.1301 555.68 70.5601 572.07 70.5601C591.16 70.5601 606.83 81.5401 606.83 110.54V110.52Z" fill="#28506A"/>
<path d="M42.42 164.05L0 126.21V88.5601L42.42 126.43V164.05Z" fill="#8EE8DF"/>
</svg>
