<?xml version="1.0" encoding="UTF-8"?>
<svg id="Layer_1" xmlns="http://www.w3.org/2000/svg" xmlns:xlink="http://www.w3.org/1999/xlink" viewBox="0 0 1504.4 495.6">
  <defs>
    <style>
      .cls-1 {
        fill: #e90e8b;
      }

      .cls-2 {
        fill: url(#linear-gradient);
      }

      .cls-3 {
        fill: #161032;
      }
    </style>
    <linearGradient id="linear-gradient" x1="133.9" y1="390.7" x2="403.6" y2="89.7" gradientUnits="userSpaceOnUse">
      <stop offset="0" stop-color="#e90e8b"/>
      <stop offset="1" stop-color="#fedd10"/>
    </linearGradient>
  </defs>
  <g>
    <path class="cls-3" d="M571.5,303.2c-14,0-26.1-3-36.3-9.1-10.2-6.1-18-14.5-23.5-25.4-5.5-10.9-8.2-23.3-8.2-37.5s2.7-27,8.2-37.9c5.5-10.9,13.3-19.4,23.5-25.6,10.2-6.2,22.3-9.3,36.3-9.3s31.3,4.3,42.4,13c11.1,8.7,17.9,20.9,20.4,36.6h-32.8c-1.6-7.1-5-12.6-10.2-16.5-5.2-3.9-11.9-5.9-20.2-5.9s-14.6,1.9-20.1,5.6c-5.5,3.7-9.7,9-12.6,15.7-2.9,6.7-4.3,14.8-4.3,24.3s1.4,17.2,4.3,23.9c2.9,6.7,7.1,11.9,12.6,15.6,5.5,3.7,12.2,5.5,20.1,5.5s15-1.8,20.2-5.3c5.2-3.5,8.6-8.6,10.2-15.3h32.8c-2.5,14.8-9.3,26.4-20.4,34.9-11.1,8.5-25.2,12.7-42.4,12.7Z"/>
    <path class="cls-3" d="M705.6,303.2c-10.4,0-19.5-2.2-27.3-6.5-7.8-4.3-13.9-10.4-18.3-18.2-4.4-7.8-6.6-16.8-6.6-26.9s2.1-19.6,6.4-27.8c4.3-8.1,10.4-14.5,18.3-19.2,7.9-4.7,17.1-7,27.5-7s19,2.2,26.6,6.5c7.6,4.3,13.5,10.3,17.8,17.9,4.3,7.6,6.4,16.3,6.4,26.2s0,2.8,0,4.5c0,1.7-.2,3.4-.3,5.1h-81.3v-17.6h51.6c-.4-5.5-2.5-9.9-6.2-13.4-3.7-3.5-8.5-5.2-14.2-5.2s-8.3,1-11.8,3c-3.5,2-6.2,5-8.1,9.1-1.9,4.1-2.9,9.2-2.9,15.3v5.8c0,4.7.9,8.8,2.6,12.5,1.7,3.7,4.3,6.5,7.8,8.5,3.5,2,7.4,3,11.8,3s8.2-.9,11.1-2.7c2.9-1.8,5.1-4,6.7-6.7h30.6c-1.9,6.1-5.1,11.8-9.6,17-4.5,5.2-10,9.3-16.5,12.3-6.5,3-13.8,4.5-21.9,4.5Z"/>
    <path class="cls-3" d="M778.7,300.8v-100.7h26.6l2.6,18.4c2.7-4.3,5.8-7.9,9.4-11,3.6-3.1,7.7-5.5,12.4-7.2,4.7-1.7,9.9-2.6,15.6-2.6v31.8h-10.2c-4,0-7.6.4-10.8,1.3-3.2.9-6,2.3-8.4,4.3-2.4,2-4.2,4.7-5.4,8.1-1.2,3.4-1.8,7.6-1.8,12.7v45h-30Z"/>
    <path class="cls-3" d="M910.8,303.2c-10.4,0-19.5-2.2-27.3-6.5-7.8-4.3-13.9-10.4-18.3-18.2-4.4-7.8-6.6-16.8-6.6-26.9s2.1-19.6,6.4-27.8c4.3-8.1,10.4-14.5,18.3-19.2,7.9-4.7,17.1-7,27.5-7s19,2.2,26.6,6.5c7.6,4.3,13.5,10.3,17.8,17.9,4.3,7.6,6.4,16.3,6.4,26.2s0,2.8,0,4.5c0,1.7-.2,3.4-.3,5.1h-81.3v-17.6h51.6c-.4-5.5-2.5-9.9-6.2-13.4-3.7-3.5-8.5-5.2-14.2-5.2s-8.3,1-11.8,3c-3.5,2-6.2,5-8.1,9.1-1.9,4.1-2.9,9.2-2.9,15.3v5.8c0,4.7.9,8.8,2.6,12.5,1.7,3.7,4.3,6.5,7.8,8.5,3.5,2,7.4,3,11.8,3s8.2-.9,11.1-2.7c2.9-1.8,5.1-4,6.7-6.7h30.6c-1.9,6.1-5.1,11.8-9.6,17-4.5,5.2-10,9.3-16.5,12.3-6.5,3-13.8,4.5-21.9,4.5Z"/>
    <path class="cls-3" d="M984.2,300.8v-139.9h92.9v24.2h-62.9v34h49.6v23.4h-49.6v58.3h-30Z"/>
    <path class="cls-3" d="M1096.7,300.8v-139.9h30v116.7h60.3v23.2h-90.3Z"/>
    <path class="cls-3" d="M1210.2,300.8v-139.9h93.7v24.2h-63.7v33h57.8v23.2h-57.8v35.4h63.7v24.2h-93.7Z"/>
    <path class="cls-1" d="M1320.5,300.8l44.6-70.9-45.2-68.9h34.8l29.6,45.4,26.8-45.4h34l-44.2,70.3,45.6,69.5h-34.8l-30.2-46.2-26.8,46.2h-34.2Z"/>
  </g>
  <g>
    <path class="cls-3" d="M509.8,391.4v-65h13.9v54.2h28v10.8h-41.9Z"/>
    <path class="cls-3" d="M558.1,391.4l23.7-65h15.9l23.7,65h-14.7l-17-49.3-17,49.3h-14.6ZM568.4,377.2l3.6-10.8h34.1l3.5,10.8h-41.3Z"/>
    <path class="cls-3" d="M629.5,391.4v-65h27.7c4.5,0,8.3.7,11.5,2.1,3.1,1.4,5.5,3.3,7.1,5.8,1.6,2.5,2.4,5.5,2.4,8.9s-.7,6-2.1,8.3c-1.4,2.2-3.3,3.9-5.6,5.1-2.4,1.2-4.9,1.9-7.7,2.1l1.5-1.1c3,.1,5.7.9,8,2.4,2.3,1.5,4.1,3.4,5.4,5.8,1.3,2.4,2,5,2,7.8s-.8,6.6-2.5,9.3c-1.7,2.7-4.1,4.7-7.3,6.2-3.2,1.5-7.1,2.2-11.6,2.2h-28.8ZM643.4,353.1h11.4c3,0,5.2-.7,6.8-2,1.6-1.4,2.4-3.3,2.4-5.8s-.8-4.4-2.4-5.8c-1.6-1.4-3.9-2.1-6.9-2.1h-11.3v15.7ZM643.4,380.1h12.5c3,0,5.4-.7,7.1-2.1,1.7-1.4,2.6-3.4,2.6-6.1s-.9-4.7-2.6-6.2-4.2-2.2-7.2-2.2h-12.3v16.6Z"/>
    <path class="cls-3" d="M712.5,392.5c-4.6,0-8.8-.8-12.6-2.4-3.7-1.6-6.7-3.9-8.9-7-2.2-3.1-3.3-6.9-3.5-11.4h14.8c0,1.8.5,3.4,1.3,4.7.8,1.4,2,2.4,3.5,3.2,1.5.8,3.2,1.2,5.2,1.2s3.2-.3,4.5-.8c1.3-.5,2.3-1.3,3-2.3s1.1-2.3,1.1-3.9-.4-3-1.3-4.1c-.8-1.1-2-2.1-3.5-3-1.5-.8-3.3-1.6-5.2-2.3-2-.7-4.1-1.4-6.2-2.1-5.1-1.7-9.1-3.9-11.8-6.8-2.8-2.8-4.1-6.6-4.1-11.4s1-7.3,2.9-10.2c1.9-2.8,4.6-5,8-6.4,3.4-1.5,7.2-2.2,11.5-2.2s8.5.8,11.8,2.3c3.4,1.5,6.1,3.7,8.1,6.6,2,2.9,3.1,6.3,3.2,10.3h-15c0-1.4-.4-2.6-1.1-3.7-.7-1.1-1.7-2-2.9-2.7-1.2-.7-2.6-1-4.1-1-1.4,0-2.7.1-3.9.6-1.2.5-2.1,1.2-2.8,2.1-.7,1-1,2.1-1,3.6s.4,2.6,1.1,3.6c.7,1,1.7,1.9,3,2.6,1.3.7,2.8,1.4,4.5,2,1.7.6,3.5,1.2,5.5,1.9,3.3,1.1,6.4,2.4,9.1,3.9,2.8,1.5,5,3.5,6.6,5.9,1.7,2.4,2.5,5.7,2.5,9.7s-.9,6.8-2.7,9.7c-1.8,3-4.4,5.4-7.9,7.1-3.5,1.8-7.7,2.7-12.7,2.7Z"/>
  </g>
  <path class="cls-2" d="M437.6,198.3c12.3-19.6,10.6-36.7,10.5-37.9-.3-3.5-4.4-32.1-44.8-34.7.2-1.3.3-2.6.4-3.9,1.7-27.1-11.8-38.6-19.9-43.1-13.7-7.5-32.2-6.1-46.6,3.2-3.6-13.8-15.8-24-30.4-24s-31.4,14.5-31.4,32.3v92.8c-8.5.4-13.9.4-14.1.4h0s0,0,0,0c-.3,0-5.7,0-14.1-.4v-92.8c0-17.8-14.1-32.3-31.4-32.3s-26.8,10.2-30.4,24c-14.4-9.3-32.9-10.7-46.6-3.2-8.2,4.5-21.6,16-19.9,43.1,0,1.3.2,2.6.4,3.9-40.4,2.6-44.5,31.2-44.8,34.7-.2,1.5-1.9,18.7,10.3,38.1-8.3,7.6-27.7,27.7-26.1,51.4,1,15.2,10.2,28.6,27.4,40.2-9,12.9-10.7,34.3-3.6,51.7,6.3,15.3,18.4,24.8,33.7,26.7-.8,8.9-.9,26.4,9.1,38.4,6.8,8.2,16.9,12.3,29.9,12.3s20.8-2.4,29.8-7c3.1,14.5,15.7,25.4,30.7,25.4s31.4-14.5,31.4-32.3v-78.6c4.7.1,9.5.2,14.2.2s9.5,0,14.2-.2v78.6c0,17.8,14.1,32.3,31.4,32.3s27.6-10.9,30.7-25.4c9.1,4.6,19.1,7,29.8,7s23.1-4.2,29.9-12.3c10.1-12.1,10-29.6,9.1-38.4,15.3-1.9,27.4-11.4,33.7-26.7,7.2-17.4,5.4-38.7-3.6-51.7,17.2-11.5,26.5-25,27.4-40.2,1.5-23.9-18.1-44.2-26.3-51.6ZM438,161.2v.3c.2,1.2,2.9,30.7-32,54.7-34.3,23.6-89.2,31.2-120.7,33.7v-57.4c12.3-1,28.1-2.9,44-6.7,39.4-9.4,63.9-26.6,71.7-50.3,35.1,1.5,36.9,24.7,37,25.6ZM285.3,90.3c0-12.3,9.6-22.4,21.4-22.4s20.9,9.6,21.3,21.5c-10.6,11.3-14.9,26.9-11.8,44.1.5,2.7,3.1,4.5,5.9,4,2.7-.5,4.6-3.1,4.1-5.8-3.1-16.9,2.4-31.7,15.1-40.7,11.6-8.2,26.7-9.7,37.6-3.7,10.5,5.7,15.7,17.7,14.7,33.8-2.9,46.4-70.8,58.2-108.2,61.3v-92.2ZM261,193.5c.3,0,.9,0,1.9,0,2.4,0,6.7,0,12.3-.3v57.5c-8.7.5-14,.5-14.2.5h0c-.2,0-5.5,0-14.2-.5v-57.4c8,.4,13.3.3,14.2.3ZM143.2,87.4c10.9-5.9,26-4.5,37.6,3.7,12.7,9,18.1,23.8,15.1,40.7-.5,2.7,1.3,5.3,4.1,5.8,2.7.5,5.4-1.3,5.9-4,3.2-17.3-1.1-32.9-11.8-44.1.4-11.9,9.8-21.5,21.3-21.5s21.4,10,21.4,22.4v92.2c-37.4-3-105.3-14.9-108.2-61.3-1-16,4.2-28,14.7-33.8ZM84,161.6v-.4c0,0,.4-6.2,5.2-12.4,6.2-8,17.2-12.6,31.8-13.2,7.8,23.7,32.2,40.9,71.6,50.3,16,3.8,31.7,5.7,44,6.7v57.4c-31.2-2.5-85.4-10.2-120.7-33.7-9-6-15.5-12.4-20.2-18.7-.2-.5-.4-.9-.7-1.4-.2-.3-.5-.5-.8-.8-12-17.4-10.4-32.9-10.3-33.8ZM68.2,249.3c-1.2-18.5,14.4-35.6,22-42.7,5,6,11.6,12.1,20.1,17.8,37.9,25.3,94.4,33.1,126.4,35.5v56.3c-25.4-1.3-50.8-4.6-76.1-9.9-29-6.1-50.9-13.4-65-21.8-17.4-10.4-26.6-22.3-27.5-35.3ZM236.7,405.3c0,12.3-9.6,22.4-21.4,22.4s-20.8-9.5-21.3-21.4c3.6-2.7,6.9-5.8,10-9.3,9.7-10.8,13.8-21.7,13.9-22.1.9-2.6-.4-5.4-3-6.4-2.6-.9-5.5.4-6.5,3-.6,1.5-14.5,37.8-53.8,37.8s-17.3-2.9-22.1-8.7c-8-9.6-7.6-24.8-6.8-31.9,33.4-1.6,44.9-21.1,45.4-21.9,1.4-2.4.5-5.4-1.9-6.7-2.4-1.4-5.5-.5-6.9,1.8-.4.7-10.5,17-41.1,17s-26.8-13.1-30-20.8c-6-14.5-4.6-32.7,2.8-42.7,15,8.1,36.6,15.1,64.4,21,26,5.4,52,8.8,78.2,10.1v79ZM246.8,316.7v-56.1c8.1.4,13.3.4,14.2.4h0c.9,0,6.1,0,14.2-.4v56.1c-9.5.3-19,.3-28.5,0ZM430.7,338c-3.2,7.8-11.4,20.8-30,20.8-30.5,0-40.6-16.3-41.1-17-1.4-2.4-4.4-3.2-6.9-1.9-2.4,1.4-3.3,4.4-1.9,6.8.5.9,12.1,20.3,45.4,21.9.7,7.1,1.2,22.3-6.8,31.9-4.8,5.8-12.3,8.7-22.1,8.7-39.2,0-53.2-36.2-53.8-37.8-1-2.6-3.8-3.9-6.5-3-2.6.9-4,3.8-3,6.4.2.5,4.2,11.3,13.9,22.1,3.1,3.5,6.5,6.6,10,9.3-.5,11.9-9.8,21.4-21.3,21.4s-21.4-10-21.4-22.4v-79c26.1-1.3,52.2-4.6,78.2-10.1,27.7-5.8,49.4-12.9,64.4-21,7.4,10,8.8,28.2,2.8,42.7ZM453.8,249.3c-.8,13.1-10.1,25-27.5,35.3-14.1,8.4-36,15.7-65,21.8-25.3,5.3-50.6,8.6-76.1,9.9v-56.3c32.3-2.4,89.5-10.2,126.4-35.6,8.4-5.8,14.9-11.9,19.9-17.9,7.5,7,23.4,24.2,22.2,42.8Z"/>
</svg>