<svg width="600" height="250" viewBox="0 0 600 250" fill="none" xmlns="http://www.w3.org/2000/svg">
<g clip-path="url(#clip0_2090_16779)">
<path d="M407.362 91.7646V108.493H428.464L421.69 91.7646H407.362Z" fill="#808080"/>
<path d="M446.597 153.286H431.511L441.556 140.832L433.627 121.259L407.333 153.874V170.123H453.414L446.597 153.286Z" fill="#808080"/>
<path d="M478.372 97.948V75L417.913 75.1306L426.861 97.2367H447.298L433.692 114.11L444.156 139.968L478.372 97.948Z" fill="#E4141E"/>
<path d="M479.643 175V150.695H448.323L458.166 175H479.643Z" fill="#E4141E"/>
<path d="M143.661 155.949V170.544L134.454 170.885C125.268 171.205 118.999 169.608 115.634 166.088C113.453 163.853 112.363 160.398 112.363 155.739V109.763H102V95.8508H112.363V75.022H131.594V95.8508H143.661V109.763H131.594V149.229C131.594 152.292 131.977 154.2 132.757 154.948C133.529 155.703 135.891 156.08 139.848 156.08C140.44 156.08 141.061 156.066 141.726 156.044C142.383 156.022 143.033 155.986 143.668 155.942L143.661 155.949Z" fill="#808080"/>
<path d="M214.165 147.93C213.667 152.364 211.37 156.863 207.276 161.428C200.913 168.693 192.002 172.322 180.549 172.322C171.096 172.322 162.755 169.259 155.526 163.141C148.297 157.023 144.687 147.059 144.687 133.262C144.687 120.337 147.951 110.423 154.472 103.521C160.993 96.6269 169.464 93.1724 179.87 93.1724C186.051 93.1724 191.619 94.3408 196.573 96.6632C201.527 98.9928 205.615 102.672 208.843 107.694C211.753 112.129 213.638 117.267 214.504 123.109C215.003 126.535 215.205 131.47 215.118 137.907H164.257C164.531 145.397 166.871 150.651 171.276 153.67C173.955 155.543 177.183 156.479 180.96 156.479C184.961 156.479 188.211 155.339 190.709 153.053C192.074 151.82 193.28 150.107 194.32 147.915H214.158L214.165 147.93ZM194.934 125.04C194.616 119.88 193.056 115.961 190.262 113.29C187.467 110.619 184.001 109.284 179.863 109.284C175.364 109.284 171.876 110.699 169.399 113.529C166.922 116.36 165.362 120.199 164.726 125.04H194.934Z" fill="#808080"/>
<path d="M225.423 103.253C230.558 96.6777 239.375 93.3828 251.876 93.3828C260.014 93.3828 267.236 95.0085 273.555 98.2453C279.874 101.489 283.029 107.607 283.029 116.607V150.869C283.029 153.242 283.073 156.123 283.167 159.505C283.304 162.067 283.686 163.802 284.329 164.716C284.965 165.63 285.918 166.385 287.196 166.98V169.862H266.059C265.467 168.352 265.055 166.937 264.831 165.616C264.6 164.288 264.419 162.786 264.282 161.095C261.603 164.019 258.512 166.509 255.01 168.562C250.829 170.986 246.098 172.191 240.827 172.191C234.096 172.191 228.543 170.261 224.159 166.4C219.776 162.539 217.581 157.067 217.581 149.991C217.581 140.81 221.105 134.162 228.146 130.047C232.009 127.812 237.693 126.208 245.188 125.25L251.803 124.43C255.393 123.973 257.963 123.4 259.509 122.717C262.282 121.527 263.668 119.676 263.668 117.165C263.668 114.103 262.614 111.991 260.498 110.83C258.382 109.661 255.284 109.081 251.19 109.081C246.597 109.081 243.347 110.22 241.441 112.506C240.076 114.197 239.166 116.483 238.711 119.357H219.964C220.375 112.825 222.188 107.455 225.416 103.253H225.423ZM239.881 155.739C241.7 157.248 243.925 158.003 246.561 158.003C250.742 158.003 254.591 156.769 258.115 154.302C261.639 151.834 263.466 147.334 263.603 140.803V133.538C262.376 134.315 261.134 134.946 259.884 135.425C258.635 135.904 256.916 136.347 254.735 136.76L250.374 137.581C246.279 138.314 243.354 139.206 241.578 140.251C238.581 142.029 237.079 144.794 237.079 148.539C237.079 151.878 238.01 154.273 239.873 155.731L239.881 155.739Z" fill="#808080"/>
<path d="M336.425 115.729C334.786 112.122 331.587 110.315 326.813 110.315C321.267 110.315 317.541 112.122 315.634 115.729C314.587 117.783 314.067 120.845 314.067 124.909V169.862H294.36V95.3064H313.244V106.2C315.656 102.317 317.924 99.552 320.061 97.9118C323.831 94.9871 328.72 93.5283 334.721 93.5283C340.404 93.5283 344.99 94.7839 348.492 97.2949C351.309 99.6246 353.446 102.615 354.905 106.272C357.447 101.889 360.61 98.6666 364.38 96.6127C368.381 94.5589 372.836 93.5283 377.747 93.5283C381.018 93.5283 384.246 94.167 387.431 95.4443C390.608 96.7216 393.497 98.9641 396.09 102.157C398.177 104.763 399.592 107.956 400.314 111.752C400.769 114.263 400.993 117.942 400.993 122.783L400.856 169.855H380.946V122.304C380.946 119.474 380.491 117.144 379.581 115.315C377.855 111.846 374.671 110.104 370.034 110.104C364.669 110.104 360.964 112.34 358.92 116.817C357.873 119.191 357.353 122.05 357.353 125.381V169.855H337.783V125.381C337.783 120.954 337.328 117.732 336.418 115.722L336.425 115.729Z" fill="#808080"/>
<path d="M489.876 171.321C494.359 171.321 497.993 167.668 497.993 163.163C497.993 158.658 494.359 155.006 489.876 155.006C485.393 155.006 481.759 158.658 481.759 163.163C481.759 167.668 485.393 171.321 489.876 171.321Z" fill="#E4141E"/>
</g>
<defs>
<clipPath id="clip0_2090_16779">
<rect width="396" height="100" fill="white" transform="translate(102 75)"/>
</clipPath>
</defs>
</svg>
